<svg xmlns="http://www.w3.org/2000/svg" viewBox="0 0 256 256" role="img" aria-label="Xbox Trader">
  <defs>
    <linearGradient id="bg" x1="24" y1="24" x2="232" y2="232" gradientUnits="userSpaceOnUse">
      <stop offset="0" stop-color="#1a1b20"/>
      <stop offset="1" stop-color="#0f1014"/>
    </linearGradient>
    <linearGradient id="line" x1="52" y1="172" x2="204" y2="72" gradientUnits="userSpaceOnUse">
      <stop offset="0" stop-color="#ff8a3d"/>
      <stop offset="1" stop-color="#ff5f00"/>
    </linearGradient>
  </defs>
  <rect x="10" y="10" width="236" height="236" rx="54" fill="url(#bg)"/>
  <path d="M56 172h26l22-40 22 28 20-34 18 18 36-58" fill="none" stroke="url(#line)" stroke-width="14" stroke-linecap="round" stroke-linejoin="round"/>
  <path d="M60 178c14 0 26-11 26-25 0-12-8-22-19-24 4-8 12-14 22-14 11 0 21 7 25 17 5-4 11-6 18-6 11 0 20 5 25 14 5-8 13-13 23-13 14 0 26 11 26 25 0 14-12 26-26 26H60z" fill="#ffffff" opacity=".08"/>
  <path d="M83 106c7-15 24-24 42-24 17 0 33 8 42 21" fill="none" stroke="#ffffff" stroke-opacity=".16" stroke-width="10" stroke-linecap="round"/>
  <circle cx="96" cy="92" r="7" fill="#f1f1f1" opacity=".9"/>
  <circle cx="160" cy="90" r="7" fill="#f1f1f1" opacity=".9"/>
  <path d="M110 66h36" fill="none" stroke="#f1f1f1" stroke-opacity=".14" stroke-width="8" stroke-linecap="round"/>
</svg>
